<svg width="377" height="262" viewBox="0 0 377 262" fill="none" xmlns="http://www.w3.org/2000/svg">
<path d="M56.9483 60.6269C48.3448 72.4738 45.4791 85.9409 43.2404 99.6618C40.9651 113.607 38.5003 127.521 36.1134 141.448C35.7944 143.309 35.4532 145.106 32.9174 145.12C22.9245 145.172 12.9319 145.285 2.939 145.319C2.15997 145.321 1.37946 144.882 0 144.468C1.53763 135.608 2.93488 126.801 4.61395 118.048C7.61771 102.389 9.46515 86.4947 13.7565 71.0978C24.5867 32.2405 58.1112 3.97022 97.3959 0.415747C145.326 -3.92101 188.214 26.0443 200.11 72.8181C206.745 98.9058 210.769 125.572 216.235 151.923C218.966 165.092 221.144 178.4 224.489 191.409C228.904 208.584 239.091 221.314 257.13 224.968C281.621 229.928 301.652 218.095 310.527 194.587C311.931 190.867 313.365 187.134 313.743 183.082C314.032 179.97 315.31 178.048 319.126 178.167C327.784 178.437 336.457 178.323 345.122 178.202C348.515 178.154 349.508 179.571 349.044 182.778C346.302 201.729 340.694 219.54 327.64 234.103C309.17 254.707 286.048 264.32 258.425 261.065C222.268 256.805 200.4 235.22 190.805 201.235C183.132 174.061 179.328 145.957 173.617 118.305C170.995 105.608 169.31 92.6789 165.432 80.2857C158.824 59.1678 146.135 43.4352 124.132 37.0837C101.153 30.4504 73.3643 37.9699 56.9483 60.6269Z" fill="black"/>
<ellipse cx="331.91" cy="105.596" rx="45" ry="46" fill="#004CEF"/>
</svg>
